<svg width="1458" height="734" viewBox="0 0 1458 734" fill="none" xmlns="http://www.w3.org/2000/svg">
<path d="M51.6874 497.06C50.5832 489.007 50.0917 481.295 50.2129 473.923C50.6119 466.512 52.7346 459.29 56.5811 452.256C60.3895 444.945 66.9319 437.965 76.2084 431.318C79.0355 429.233 83.0364 426.421 88.2112 422.883C93.6637 419.306 99.0401 415.174 104.34 410.487C109.641 405.8 113.911 400.829 117.153 395.575C120.634 390.006 121.975 384.305 121.176 378.474C120.605 374.309 118.86 370.87 115.941 368.159C113.262 365.131 109.864 363.051 105.746 361.918C101.907 360.747 97.7648 360.467 93.3204 361.076C86.6538 361.99 81.3267 364.418 77.3392 368.359C73.5914 371.985 70.6142 376.071 68.4076 380.617C66.4406 384.847 64.5364 388.503 62.695 391.585L7.3673 362.677C10.5284 350.645 15.8815 340.151 23.4264 331.195C30.9333 321.962 40.0956 314.482 50.9132 308.755C61.9706 302.712 74.1659 298.777 87.4991 296.949C98.0545 295.502 108.819 295.581 119.794 297.189C131.046 298.758 141.573 302.265 151.376 307.71C161.178 313.156 169.461 320.932 176.223 331.037C183.264 341.105 187.85 353.914 189.982 369.464C190.896 376.128 191.216 382.591 190.943 388.852C190.669 395.114 189.524 401.212 187.508 407.146C185.731 412.765 182.963 418.378 179.204 423.985C175.685 429.277 171.155 434.425 165.615 439.428C158.321 446.086 150.635 451.949 142.558 457.017C134.757 462.047 128.226 467.045 122.964 472.01C117.664 476.697 115.432 482.095 116.27 488.204L51.6874 497.06ZM67.7291 604.766L58.3629 536.457L122.946 527.602L132.312 595.911L67.7291 604.766Z" fill="#F6F6F6"/>
<path d="M1335.64 645.932C1334.84 640.068 1334.48 634.452 1334.57 629.083C1334.86 623.687 1336.4 618.428 1339.2 613.306C1341.98 607.981 1346.74 602.899 1353.5 598.059C1355.55 596.54 1358.47 594.493 1362.24 591.916C1366.21 589.311 1370.12 586.302 1373.98 582.889C1377.84 579.476 1380.95 575.856 1383.31 572.03C1385.85 567.974 1386.82 563.823 1386.24 559.577C1385.83 556.544 1384.55 554.04 1382.43 552.065C1380.48 549.861 1378 548.346 1375.01 547.521C1372.21 546.668 1369.19 546.464 1365.96 546.908C1361.1 547.573 1357.22 549.341 1354.32 552.212C1351.59 554.852 1349.42 557.827 1347.81 561.138C1346.38 564.218 1345 566.88 1343.66 569.124L1303.36 548.074C1305.67 539.312 1309.57 531.67 1315.06 525.148C1320.53 518.424 1327.2 512.977 1335.08 508.807C1343.13 504.407 1352.01 501.541 1361.72 500.21C1369.4 499.156 1377.24 499.214 1385.23 500.384C1393.43 501.527 1401.09 504.081 1408.23 508.046C1415.37 512.012 1421.4 517.674 1426.33 525.033C1431.45 532.365 1434.79 541.692 1436.35 553.016C1437.01 557.869 1437.25 562.575 1437.05 567.135C1436.85 571.694 1436.01 576.135 1434.54 580.456C1433.25 584.548 1431.24 588.635 1428.5 592.719C1425.94 596.572 1422.64 600.321 1418.6 603.964C1413.29 608.813 1407.69 613.082 1401.81 616.773C1396.13 620.436 1391.38 624.075 1387.54 627.691C1383.68 631.104 1382.06 635.035 1382.67 639.484L1335.64 645.932ZM1347.32 724.365L1340.5 674.622L1387.53 668.173L1394.35 717.917L1347.32 724.365Z" fill="#F6F6F6"/>
<path d="M699.261 507.974C704.612 498.706 710.326 490.287 716.402 482.716C722.798 475.329 730.835 469.53 740.514 465.317C750.377 460.785 762.816 458.805 777.831 459.377C782.455 459.49 788.887 459.795 797.126 460.29C805.685 460.97 814.613 461.012 823.91 460.413C833.206 459.815 841.661 458.092 849.274 455.243C857.391 452.259 863.386 447.411 867.261 440.7C870.029 435.906 870.989 430.921 870.141 425.744C869.798 420.432 867.942 415.526 864.573 411.024C861.524 406.707 857.442 403.072 852.327 400.119C844.654 395.689 837.153 393.915 829.824 394.796C822.998 395.543 816.603 397.391 810.639 400.339C805.178 403.152 800.246 405.418 795.844 407.137L761.62 332.409C774.621 322.443 788.659 315.848 803.736 312.621C818.998 309.075 834.567 308.689 850.442 311.463C866.822 314.101 882.684 319.851 898.03 328.711C910.179 335.725 921.312 344.496 931.431 355.026C941.87 365.74 949.99 377.885 955.793 391.462C961.595 405.039 963.935 419.813 962.813 435.784C962.011 451.939 956.443 468.966 946.11 486.863C941.682 494.533 936.799 501.514 931.461 507.807C926.123 514.1 920.01 519.519 913.123 524.065C906.739 528.476 899.33 532.081 890.893 534.881C882.961 537.545 874.094 539.244 864.293 539.977C851.331 541.016 838.604 540.911 826.11 539.664C813.935 538.601 803.107 538.528 793.626 539.446C784.329 540.044 777.651 543.858 773.592 550.889L699.261 507.974ZM629.016 632.966L674.406 554.347L748.737 597.261L703.346 675.881L629.016 632.966Z" fill="#F6F6F6"/>
<path d="M1197.64 241.722C1196.53 233.67 1196.04 225.957 1196.16 218.585C1196.56 211.175 1198.68 203.953 1202.53 196.919C1206.34 189.607 1212.88 182.628 1222.16 175.981C1224.98 173.896 1228.98 171.084 1234.16 167.546C1239.61 163.969 1244.99 159.837 1250.29 155.15C1255.59 150.462 1259.86 145.492 1263.1 140.238C1266.58 134.669 1267.92 128.968 1267.12 123.137C1266.55 118.972 1264.81 115.533 1261.89 112.822C1259.21 109.794 1255.81 107.714 1251.69 106.581C1247.85 105.41 1243.71 105.129 1239.27 105.739C1232.6 106.653 1227.27 109.081 1223.29 113.022C1219.54 116.648 1216.56 120.734 1214.36 125.28C1212.39 129.51 1210.48 133.166 1208.64 136.248L1153.32 107.34C1156.48 95.3076 1161.83 84.8136 1169.37 75.8579C1176.88 66.6246 1186.04 59.1445 1196.86 53.4178C1207.92 47.3752 1220.11 43.4399 1233.45 41.6117C1244 40.1644 1254.77 40.2443 1265.74 41.8515C1276.99 43.4206 1287.52 46.9278 1297.32 52.3733C1307.13 57.8188 1315.41 65.5945 1322.17 75.7003C1329.21 85.768 1333.8 98.5769 1335.93 114.127C1336.84 120.791 1337.16 127.254 1336.89 133.515C1336.62 139.777 1335.47 145.874 1333.46 151.809C1331.68 157.428 1328.91 163.041 1325.15 168.648C1321.63 173.94 1317.1 179.088 1311.56 184.091C1304.27 190.749 1296.58 196.612 1288.51 201.68C1280.71 206.71 1274.17 211.708 1268.91 216.673C1263.61 221.36 1261.38 226.758 1262.22 232.867L1197.64 241.722ZM1213.68 349.429L1204.31 281.12L1268.89 272.265L1278.26 340.574L1213.68 349.429Z" fill="#F6F6F6"/>
<path d="M417.075 125.225C419.898 120.336 422.912 115.895 426.117 111.902C429.49 108.006 433.73 104.946 438.835 102.724C444.038 100.334 450.599 99.2894 458.519 99.5914C460.958 99.6509 464.35 99.8114 468.696 100.073C473.211 100.432 477.92 100.453 482.824 100.138C487.728 99.8224 492.187 98.9133 496.203 97.4106C500.484 95.8367 503.647 93.2797 505.691 89.7396C507.15 87.211 507.657 84.5814 507.21 81.8508C507.029 79.049 506.05 76.4609 504.273 74.0864C502.664 71.8093 500.511 69.8918 497.813 68.3341C493.766 65.9974 489.809 65.0617 485.943 65.5268C482.343 65.9207 478.97 66.8952 475.824 68.4502C472.943 69.934 470.342 71.1293 468.02 72.0362L449.968 32.6192C456.825 27.3627 464.23 23.8836 472.183 22.1817C480.233 20.3112 488.445 20.1075 496.819 21.5707C505.459 22.9626 513.826 25.9952 521.92 30.6685C528.328 34.3682 534.201 38.995 539.538 44.5491C545.045 50.2004 549.328 56.6068 552.388 63.7681C555.449 70.9294 556.683 78.7222 556.091 87.1465C555.668 95.6681 552.732 104.649 547.281 114.089C544.945 118.135 542.37 121.817 539.554 125.137C536.738 128.456 533.514 131.314 529.881 133.712C526.514 136.039 522.606 137.941 518.156 139.417C513.972 140.822 509.295 141.719 504.125 142.105C497.288 142.653 490.574 142.598 483.984 141.94C477.563 141.379 471.851 141.341 466.85 141.825C461.946 142.141 458.424 144.153 456.283 147.861L417.075 125.225ZM380.023 191.154L403.965 149.685L443.172 172.321L419.23 213.791L380.023 191.154Z" fill="#F6F6F6"/>
</svg>
