<svg width="33" height="33" viewBox="0 0 33 33" fill="none" xmlns="http://www.w3.org/2000/svg">
<g filter="url(#filter0_d_40_389)">
<path d="M22.5122 6.47917C20.9129 4.88542 18.7805 4 16.5296 4C11.8502 4 8.05923 7.77778 8.05923 12.441C8.05923 13.9167 8.47387 15.3924 9.18467 16.6319L8 21L12.5017 19.8194C13.7456 20.4688 15.108 20.8229 16.5296 20.8229C21.2091 20.8229 25 17.0451 25 12.3819C24.9408 10.1979 24.1115 8.07292 22.5122 6.47917ZM20.6167 15.4514C20.439 15.9236 19.6098 16.3958 19.1951 16.4549C18.8397 16.5139 18.3659 16.5139 17.892 16.3958C17.5958 16.2778 17.1812 16.1597 16.7073 15.9236C14.5749 15.0382 13.2125 12.9132 13.0941 12.7361C12.9756 12.6181 12.2056 11.6146 12.2056 10.5521C12.2056 9.48958 12.7387 9.01736 12.9164 8.78125C13.0941 8.54514 13.331 8.54514 13.5087 8.54514C13.6272 8.54514 13.8049 8.54514 13.9233 8.54514C14.0418 8.54514 14.2195 8.48611 14.3972 8.89931C14.5749 9.3125 14.9895 10.375 15.0488 10.434C15.108 10.5521 15.108 10.6701 15.0488 10.7882C14.9895 10.9062 14.9303 11.0243 14.8118 11.1424C14.6934 11.2604 14.5749 11.4375 14.5157 11.4965C14.3972 11.6146 14.2787 11.7326 14.3972 11.9097C14.5157 12.1458 14.9303 12.7951 15.5819 13.3854C16.4111 14.0937 17.0627 14.3299 17.2997 14.4479C17.5366 14.566 17.655 14.5069 17.7735 14.3889C17.892 14.2708 18.3066 13.7986 18.4251 13.5625C18.5436 13.3264 18.7213 13.3854 18.899 13.4444C19.0767 13.5035 20.1429 14.0347 20.3206 14.1528C20.5575 14.2708 20.676 14.3299 20.7352 14.3889C20.7944 14.566 20.7944 14.9792 20.6167 15.4514Z" fill="#0DBE43"/>
</g>
<defs>
<filter id="filter0_d_40_389" x="0" y="0" width="33" height="33" filterUnits="userSpaceOnUse" color-interpolation-filters="sRGB">
<feFlood flood-opacity="0" result="BackgroundImageFix"/>
<feColorMatrix in="SourceAlpha" type="matrix" values="0 0 0 0 0 0 0 0 0 0 0 0 0 0 0 0 0 0 127 0" result="hardAlpha"/>
<feOffset dy="4"/>
<feGaussianBlur stdDeviation="4"/>
<feComposite in2="hardAlpha" operator="out"/>
<feColorMatrix type="matrix" values="0 0 0 0 0.0509804 0 0 0 0 0.745098 0 0 0 0 0.262745 0 0 0 0.3 0"/>
<feBlend mode="normal" in2="BackgroundImageFix" result="effect1_dropShadow_40_389"/>
<feBlend mode="normal" in="SourceGraphic" in2="effect1_dropShadow_40_389" result="shape"/>
</filter>
</defs>
</svg>
