<svg width="54" height="51" viewBox="0 0 54 51" fill="none" xmlns="http://www.w3.org/2000/svg">
<g opacity="0.3">
<rect width="54" height="51" rx="4" fill="white"/>
<path d="M52.7631 3.87466C53.512 3.13975 53.512 1.94821 52.7631 1.2133C52.0143 0.478381 50.8001 0.47838 50.0512 1.2133L26.9998 23.8349L3.9484 1.2133C3.19952 0.478381 1.98534 0.478381 1.23646 1.2133C0.487586 1.94821 0.487584 3.13975 1.23646 3.87466L24.2879 26.4963L2.59243 47.7872C1.84355 48.5221 1.84355 49.7137 2.59243 50.4486C3.34131 51.1835 4.55548 51.1835 5.30436 50.4486L26.9998 29.1576L48.6953 50.4486C49.4441 51.1835 50.6583 51.1835 51.4072 50.4486C52.1561 49.7137 52.1561 48.5221 51.4072 47.7872L29.7117 26.4963L52.7631 3.87466Z" fill="#2E2E2E"/>
</g>
</svg>
