<svg width="98" height="90" viewBox="0 0 98 90" fill="none" xmlns="http://www.w3.org/2000/svg">
<rect width="98" height="90" rx="4" fill="#0AA7B1"/>
<path fill-rule="evenodd" clip-rule="evenodd" d="M38.5966 26.8865C37.8352 26.1511 36.6218 26.1723 35.8865 26.9338C35.1511 27.6952 35.1723 28.9086 35.9338 29.6439L48.323 41.6081L33.9109 56.0201C33.1624 56.7686 33.1624 57.9822 33.9109 58.7307C34.6594 59.4792 35.873 59.4792 36.6215 58.7307L51.0809 44.2713L65.5466 58.2407C66.308 58.976 67.5214 58.9549 68.2568 58.1934C68.9921 57.432 68.9709 56.2186 68.2095 55.4832L53.7918 41.5603L65.7307 29.6215C66.4792 28.873 66.4792 27.6594 65.7307 26.9109C64.9822 26.1624 63.7686 26.1624 63.0201 26.9109L51.034 38.8971L38.5966 26.8865Z" fill="white"/>
</svg>
