<svg width="98" height="90" viewBox="0 0 98 90" fill="none" xmlns="http://www.w3.org/2000/svg">
<rect width="98" height="90" rx="4" fill="#0AA7B1"/>
<path fill-rule="evenodd" clip-rule="evenodd" d="M29 35C29 33.8954 29.8954 33 31 33H67C68.1046 33 69 33.8954 69 35C69 36.1046 68.1046 37 67 37H31C29.8954 37 29 36.1046 29 35ZM29 45C29 43.8954 29.8954 43 31 43H67C68.1046 43 69 43.8954 69 45C69 46.1046 68.1046 47 67 47H31C29.8954 47 29 46.1046 29 45ZM31 53C29.8954 53 29 53.8954 29 55C29 56.1046 29.8954 57 31 57H67C68.1046 57 69 56.1046 69 55C69 53.8954 68.1046 53 67 53H31Z" fill="white"/>
</svg>
