<svg width="67" height="50" viewBox="0 0 67 50" fill="none" xmlns="http://www.w3.org/2000/svg">
<g filter="url(#filter0_d_18_922)">
<path d="M14 26C14 27.1046 14.8954 28 16 28H28.2091C29.3137 28 30.2091 27.1046 30.2091 26V16.2738C30.2091 15.8863 30.0966 15.5071 29.8851 15.1824L24.4973 6.90862C24.1282 6.34184 23.4977 6 22.8213 6H18.7807C17.3589 6 16.3912 7.44181 16.9298 8.75763L18.2743 12.0424C18.8129 13.3582 17.8451 14.8 16.4233 14.8H16C14.8954 14.8 14 15.6954 14 16.8V26Z" fill="#0AA7B1"/>
<path d="M36.7909 26C36.7909 27.1046 37.6863 28 38.7909 28H51C52.1046 28 53 27.1046 53 26V16.2738C53 15.8863 52.8874 15.5071 52.676 15.1824L47.2881 6.90862C46.919 6.34184 46.2885 6 45.6122 6H41.5716C40.1498 6 39.182 7.44181 39.7206 8.75763L41.0651 12.0424C41.6037 13.3582 40.636 14.8 39.2142 14.8H38.7909C37.6863 14.8 36.7909 15.6954 36.7909 16.8V26Z" fill="#0AA7B1"/>
</g>
<defs>
<filter id="filter0_d_18_922" x="0" y="0" width="67" height="50" filterUnits="userSpaceOnUse" color-interpolation-filters="sRGB">
<feFlood flood-opacity="0" result="BackgroundImageFix"/>
<feColorMatrix in="SourceAlpha" type="matrix" values="0 0 0 0 0 0 0 0 0 0 0 0 0 0 0 0 0 0 127 0" result="hardAlpha"/>
<feOffset dy="8"/>
<feGaussianBlur stdDeviation="7"/>
<feComposite in2="hardAlpha" operator="out"/>
<feColorMatrix type="matrix" values="0 0 0 0 0.0392157 0 0 0 0 0.654902 0 0 0 0 0.694118 0 0 0 0.3 0"/>
<feBlend mode="normal" in2="BackgroundImageFix" result="effect1_dropShadow_18_922"/>
<feBlend mode="normal" in="SourceGraphic" in2="effect1_dropShadow_18_922" result="shape"/>
</filter>
</defs>
</svg>
