<svg width="0" height="0" class="hidden">


<symbol width="15" height="9" viewBox="0 0 15 9" id="faq_arrow" xmlns="http://www.w3.org/2000/svg">
  <path d="M1.41421 0L0 1.41421L7.07107 8.48528L14.1421 1.41421L12.7279 0L7.07107 5.65685L1.41421 0Z"/>
</symbol>

<symbol width="12" height="6" viewBox="0 0 12 6" id="arrow" xmlns="http://www.w3.org/2000/svg">
  <path d="M12 3L7 0.113249V5.88675L12 3ZM0 3.5H7.5V2.5H0V3.5Z"/>
</symbol>

<svg width="31" height="31" viewBox="0 0 31 31" id="whats" xmlns="http://www.w3.org/2000/svg">
  <path d="M26.4634 4.52083C23.547 1.61458 19.6585 0 15.554 0C7.0209 0 0.108012 6.88889 0.108012 15.3924C0.108012 18.0833 0.864111 20.7743 2.16028 23.0347L0 31L8.20906 28.8472C10.4774 30.0312 12.9617 30.6771 15.554 30.6771C24.0871 30.6771 31 23.7882 31 15.2847C30.892 11.3021 29.3798 7.42708 26.4634 4.52083ZM23.007 20.8819C22.6829 21.7431 21.1707 22.6042 20.4146 22.7118C19.7665 22.8194 18.9024 22.8194 18.0383 22.6042C17.4983 22.3889 16.7422 22.1736 15.878 21.7431C11.9895 20.1285 9.50523 16.2535 9.2892 15.9306C9.07317 15.7153 7.66899 13.8854 7.66899 11.9479C7.66899 10.0104 8.64111 9.1493 8.96516 8.71875C9.2892 8.28819 9.72125 8.28819 10.0453 8.28819C10.2613 8.28819 10.5854 8.28819 10.8014 8.28819C11.0174 8.28819 11.3415 8.18056 11.6655 8.93403C11.9895 9.6875 12.7456 11.625 12.8537 11.7326C12.9617 11.9479 12.9617 12.1632 12.8537 12.3785C12.7456 12.5938 12.6376 12.809 12.4216 13.0243C12.2056 13.2396 11.9895 13.5625 11.8815 13.6701C11.6655 13.8854 11.4495 14.1007 11.6655 14.4236C11.8815 14.8542 12.6376 16.0382 13.8258 17.1146C15.338 18.4062 16.5261 18.8368 16.9582 19.0521C17.3902 19.2674 17.6063 19.1597 17.8223 18.9444C18.0383 18.7292 18.7944 17.8681 19.0105 17.4375C19.2265 17.0069 19.5505 17.1146 19.8746 17.2222C20.1986 17.3299 22.1429 18.2986 22.4669 18.5139C22.899 18.7292 23.115 18.8368 23.223 18.9444C23.331 19.2674 23.331 20.0208 23.007 20.8819Z"/>
</svg>


</svg>