<svg width="79" height="78" viewBox="0 0 79 78" fill="none" xmlns="http://www.w3.org/2000/svg">
<path fill-rule="evenodd" clip-rule="evenodd" d="M39.5 78C61.0391 78 78.5 60.5391 78.5 39C78.5 17.4609 61.0391 0 39.5 0C17.9609 0 0.5 17.4609 0.5 39C0.5 60.5391 17.9609 78 39.5 78ZM53.3701 29.5858C54.1511 30.3668 54.1511 31.6332 53.3701 32.4142L36.3995 49.3848C35.6673 50.117 34.5085 50.1628 33.723 49.5221C33.6706 49.4794 33.6199 49.4336 33.5711 49.3848L25.0858 40.8995C24.3047 40.1184 24.3047 38.8521 25.0858 38.0711C25.8668 37.29 27.1332 37.29 27.9142 38.0711L34.9853 45.1421L50.5416 29.5858C51.3227 28.8047 52.589 28.8047 53.3701 29.5858Z" fill="#0AA7B1"/>
</svg>
