<svg width="52" height="51" viewBox="0 0 52 51" fill="none" xmlns="http://www.w3.org/2000/svg">
<g filter="url(#filter0_d_132_662)">
<path d="M37.3716 9.52083C34.4552 6.61458 30.5667 5 26.4622 5C17.9291 5 11.0162 11.8889 11.0162 20.3924C11.0162 23.0833 11.7723 25.7743 13.0685 28.0347L10.9082 36L19.1173 33.8472C21.3856 35.0312 23.8699 35.6771 26.4622 35.6771C34.9953 35.6771 41.9082 28.7882 41.9082 20.2847C41.8002 16.3021 40.288 12.4271 37.3716 9.52083ZM33.9152 25.8819C33.5911 26.7431 32.0789 27.6042 31.3228 27.7118C30.6747 27.8194 29.8106 27.8194 28.9465 27.6042C28.4065 27.3889 27.6504 27.1736 26.7863 26.7431C22.8977 25.1285 20.4134 21.2535 20.1974 20.9306C19.9814 20.7153 18.5772 18.8854 18.5772 16.9479C18.5772 15.0104 19.5493 14.1493 19.8734 13.7187C20.1974 13.2882 20.6295 13.2882 20.9535 13.2882C21.1695 13.2882 21.4936 13.2882 21.7096 13.2882C21.9256 13.2882 22.2497 13.1806 22.5737 13.934C22.8977 14.6875 23.6538 16.625 23.7619 16.7326C23.8699 16.9479 23.8699 17.1632 23.7619 17.3785C23.6538 17.5938 23.5458 17.809 23.3298 18.0243C23.1138 18.2396 22.8977 18.5625 22.7897 18.6701C22.5737 18.8854 22.3577 19.1007 22.5737 19.4236C22.7897 19.8542 23.5458 21.0382 24.734 22.1146C26.2462 23.4062 27.4343 23.8368 27.8664 24.0521C28.2984 24.2674 28.5145 24.1597 28.7305 23.9444C28.9465 23.7292 29.7026 22.8681 29.9187 22.4375C30.1347 22.0069 30.4587 22.1146 30.7828 22.2222C31.1068 22.3299 33.0511 23.2986 33.3751 23.5139C33.8072 23.7292 34.0232 23.8368 34.1312 23.9444C34.2392 24.2674 34.2392 25.0208 33.9152 25.8819Z" fill="#48C95F"/>
</g>
<defs>
<filter id="filter0_d_132_662" x="0.908203" y="0" width="51" height="51" filterUnits="userSpaceOnUse" color-interpolation-filters="sRGB">
<feFlood flood-opacity="0" result="BackgroundImageFix"/>
<feColorMatrix in="SourceAlpha" type="matrix" values="0 0 0 0 0 0 0 0 0 0 0 0 0 0 0 0 0 0 127 0" result="hardAlpha"/>
<feOffset dy="5"/>
<feGaussianBlur stdDeviation="5"/>
<feComposite in2="hardAlpha" operator="out"/>
<feColorMatrix type="matrix" values="0 0 0 0 0.282353 0 0 0 0 0.788235 0 0 0 0 0.372549 0 0 0 0.4 0"/>
<feBlend mode="normal" in2="BackgroundImageFix" result="effect1_dropShadow_132_662"/>
<feBlend mode="normal" in="SourceGraphic" in2="effect1_dropShadow_132_662" result="shape"/>
</filter>
</defs>
</svg>
