<svg width="37" height="40" viewBox="0 0 37 40" fill="none" xmlns="http://www.w3.org/2000/svg">
<rect x="0.5" y="0.5" width="36" height="37" rx="1.5" fill="white"/>
<g filter="url(#filter0_d_9_681)">
<path d="M24.5122 12.9792C22.9129 11.3854 20.7805 10.5 18.5296 10.5C13.8502 10.5 10.0592 14.2778 10.0592 18.941C10.0592 20.4167 10.4739 21.8924 11.1847 23.1319L10 27.5L14.5017 26.3194C15.7456 26.9688 17.108 27.3229 18.5296 27.3229C23.2091 27.3229 27 23.5451 27 18.8819C26.9408 16.6979 26.1115 14.5729 24.5122 12.9792ZM22.6167 21.9514C22.439 22.4236 21.6098 22.8958 21.1951 22.9549C20.8397 23.0139 20.3659 23.0139 19.892 22.8958C19.5958 22.7778 19.1812 22.6597 18.7073 22.4236C16.5749 21.5382 15.2125 19.4132 15.0941 19.2361C14.9756 19.1181 14.2056 18.1146 14.2056 17.0521C14.2056 15.9896 14.7387 15.5174 14.9164 15.2812C15.0941 15.0451 15.331 15.0451 15.5087 15.0451C15.6272 15.0451 15.8049 15.0451 15.9233 15.0451C16.0418 15.0451 16.2195 14.9861 16.3972 15.3993C16.5749 15.8125 16.9895 16.875 17.0488 16.934C17.108 17.0521 17.108 17.1701 17.0488 17.2882C16.9895 17.4062 16.9303 17.5243 16.8118 17.6424C16.6934 17.7604 16.5749 17.9375 16.5157 17.9965C16.3972 18.1146 16.2787 18.2326 16.3972 18.4097C16.5157 18.6458 16.9303 19.2951 17.5819 19.8854C18.4111 20.5937 19.0627 20.8299 19.2997 20.9479C19.5366 21.066 19.655 21.0069 19.7735 20.8889C19.892 20.7708 20.3066 20.2986 20.4251 20.0625C20.5436 19.8264 20.7213 19.8854 20.899 19.9444C21.0767 20.0035 22.1429 20.5347 22.3206 20.6528C22.5575 20.7708 22.676 20.8299 22.7352 20.8889C22.7944 21.066 22.7944 21.4792 22.6167 21.9514Z" fill="#0DBE43"/>
</g>
<rect x="0.5" y="0.5" width="36" height="37" rx="1.5" stroke="#0DBE43"/>
<defs>
<filter id="filter0_d_9_681" x="2" y="6.5" width="33" height="33" filterUnits="userSpaceOnUse" color-interpolation-filters="sRGB">
<feFlood flood-opacity="0" result="BackgroundImageFix"/>
<feColorMatrix in="SourceAlpha" type="matrix" values="0 0 0 0 0 0 0 0 0 0 0 0 0 0 0 0 0 0 127 0" result="hardAlpha"/>
<feOffset dy="4"/>
<feGaussianBlur stdDeviation="4"/>
<feComposite in2="hardAlpha" operator="out"/>
<feColorMatrix type="matrix" values="0 0 0 0 0.0509804 0 0 0 0 0.745098 0 0 0 0 0.262745 0 0 0 0.3 0"/>
<feBlend mode="normal" in2="BackgroundImageFix" result="effect1_dropShadow_9_681"/>
<feBlend mode="normal" in="SourceGraphic" in2="effect1_dropShadow_9_681" result="shape"/>
</filter>
</defs>
</svg>
